<svg width="20" height="20" viewBox="0 0 20 20" fill="none" xmlns="http://www.w3.org/2000/svg">
<path fill-rule="evenodd" clip-rule="evenodd" d="M19.2857 0H11.4286L10.9286 0.253165L10 1.33333L9.07143 0.253165L8.57143 0H0.714286L0 0.843882V17.7215L0.714286 18.5654H8.27143L9.5 20H10.5L11.7286 18.5654H19.2857L20 17.7215V0.843882L19.2857 0ZM9.28571 17.4177L9.02857 17.1308L8.57143 16.8776H1.42857V1.68776H8.27143L9.32857 2.93671L9.28571 17.4177ZM18.5714 16.8776H11.4286L10.9286 17.1308L10.7286 17.3502V2.8692L11.7286 1.68776H18.5714V16.8776ZM7.14286 5.06329H2.85714V6.75105H7.14286V5.06329ZM7.14286 11.8143H2.85714V13.5021H7.14286V11.8143ZM2.85714 8.43882H7.14286V10.1266H2.85714V8.43882ZM17.1429 5.06329H12.8571V6.75105H17.1429V5.06329ZM12.8571 8.43882H17.1429V10.1266H12.8571V8.43882ZM12.8571 11.8143H17.1429V13.5021H12.8571V11.8143Z" fill="#CDCDCD"/>
</svg>
