<svg width="60" height="61" viewBox="0 0 60 61" fill="none" xmlns="http://www.w3.org/2000/svg">
<g filter="url(#filter0_d_5_78)">
<path d="M40 36.2487V28.4227C40.0001 27.8782 39.889 27.3395 39.6735 26.8394C39.458 26.3394 39.1428 25.8886 38.747 25.5147L31.374 18.5467C31.0027 18.1956 30.511 18 30 18C29.489 18 28.9973 18.1956 28.626 18.5467L21.253 25.5147C20.8572 25.8886 20.542 26.3394 20.3265 26.8394C20.111 27.3395 19.9999 27.8782 20 28.4227V36.2487C20 36.7791 20.2107 37.2878 20.5858 37.6629C20.9609 38.038 21.4696 38.2487 22 38.2487H38C38.5304 38.2487 39.0391 38.038 39.4142 37.6629C39.7893 37.2878 40 36.7791 40 36.2487Z" fill="#D55555"/>
</g>
<defs>
<filter id="filter0_d_5_78" x="0" y="0" width="60" height="60.2487" filterUnits="userSpaceOnUse" color-interpolation-filters="sRGB">
<feFlood flood-opacity="0" result="BackgroundImageFix"/>
<feColorMatrix in="SourceAlpha" type="matrix" values="0 0 0 0 0 0 0 0 0 0 0 0 0 0 0 0 0 0 127 0" result="hardAlpha"/>
<feOffset dy="2"/>
<feGaussianBlur stdDeviation="10"/>
<feComposite in2="hardAlpha" operator="out"/>
<feColorMatrix type="matrix" values="0 0 0 0 0.0352941 0 0 0 0 0.984314 0 0 0 0 0.827451 0 0 0 0.15 0"/>
<feBlend mode="normal" in2="BackgroundImageFix" result="effect1_dropShadow_5_78"/>
<feBlend mode="normal" in="SourceGraphic" in2="effect1_dropShadow_5_78" result="shape"/>
</filter>
</defs>
</svg>
